General

Format                           : MPEG-4
Format profile                   : Base Media
Codec ID                         : isom
File size                        : 60.3 MiB
Duration                         : 2mn 50s
Overall bit rate                 : 2 965 Kbps
Encoded date                     : UTC 2012-04-14 20:31:22
Tagged date                      : UTC 2012-04-14 20:31:22

Video
ID                               : 1
Format                           : AVC
Format/Info                      : Advanced Video Codec
Format profile                   : High@L3.0
Format settings, CABAC           : Yes
Format settings, ReFrames        : 2 frames
Codec ID                         : avc1
Codec ID/Info                    : Advanced Video Coding
Duration                         : 2mn 50s
Bit rate mode                    : Variable
Bit rate                         : 2 916 Kbps
Maximum bit rate                 : 8 247 Kbps
Width                            : 720 pixels
Height                           : 480 pixels
Display aspect ratio             : 16:9
Original display aspect ratio    : 16:9
Frame rate mode                  : Constant
Frame rate                       : 23.976 fps
Standard                         : NTSC
Color space                      : YUV
Chroma subsampling               : 4:2:0
Bit depth                        : 8 bits
Scan type                        : Progressive
Bits/(Pixel*Frame)               : 0.352
Stream size                      : 59.0 MiB (98%)


Audio
ID                               : 2
Format                           : AAC
Format/Info                      : Advanced Audio Codec
Format profile                   : LC
Codec ID                         : 40
Duration                         : 2mn 50s
Bit rate mode                    : Variable
Bit rate                         : 58.2 Kbps
Maximum bit rate                 : 71.2 Kbps
Channel(s)                       : 2 channels
Channel positions                : Front: L R
Sampling rate                    : 44.1 KHz
Compression mode                 : Lossy
Stream size                      : 1.18 MiB (2%)